<svg xmlns="http://www.w3.org/2000/svg" viewBox="0 0 3840 2160" preserveAspectRatio="none">
  <path id="mask" d="M526,1928c0-232,240-340.6,444.7-296.6c101.3,21.8,189,68.4,282.8,110.3c85.9,38.3,214.4,85.4,309.8,75.1c52.2-5.7,69.3-45.4,31.4-82.9c-36.3-36-89.6-58.5-131.9-87.1c-60.9-41.1-154.8-129.3-83.9-204.8c56.1-59.7,178.2-22.6,245.7-6.8c93.7,21.9,182.2,57.6,274.4,86.2c47.3,14.7,95.1,34.5,144.7,39.5c34.1,3.4,80.9,11.9,114.7,5.6c136.9-25.6-41.8-161.8-78.5-197.7c-37.5-36.7-75.3-73.8-114.9-108.2c-28.2-24.5-59.7-38.8-78.8-70.4c-56.7-93.9,17.3-166.6,113.4-175.6c44-4.1,104.7,13.8,145.9-6.6c59.3-29.3-21.6-77.9-38-118.9c-40-99.9,90.5-130.9,161.1-129.7c99.9,1.7,243.4,81,335.3,13.6c106.6-78.3-101.4-177.8-155.9-204.1c-62-29.9-123.4-62.3-188.1-85.6c-51.2-18.5-105.3-41.9-147.6-77.4c-47.7-40.1-43.3-95.9,13.7-127.9c51.3-28.8,110.9-21.7,166.5-17.7c108.4,8,241.7,27.3,340.8-31.1c143-84.3-99.6-201.9-173.1-227c460.7,0,921.3,0,1382,0c0,720,0,1440,0,2160c-585.8,0-1171.6,0-1757.4,0c-288.3,0-576.5,0-864.8,0c-148.8,0-297.6,0-446.3,0c-33.2,0-79.6,8.3-111.6,0c-22.4,9-33.2,3.1-32.5-17.8c-5.8-13.1-13-25.3-21.7-36.7C570.4,2047.5,545.1,1996.4,526,1928C526,1920.7,528,1935.3,526,1928z"/>
</svg>
